<svg width="2421" height="367" viewBox="0 0 2421 367" fill="none" xmlns="http://www.w3.org/2000/svg">
<path d="M0 50.7855L44.8894 63.442C90.0309 75.8764 179.81 101.189 269.336 106.296C358.863 111.403 448.137 96.7484 537.664 78.5409C627.19 60.3333 716.969 39.0172 807 36.3527C897.031 33.6882 986.81 50.1194 1076.34 50.7855C1165.86 51.4516 1255.14 36.7968 1344.66 31.9118C1434.19 27.0269 1523.97 32.3559 1614 24.1403C1704.03 15.9247 1793.81 -5.39137 1883.34 1.26992C1972.86 7.93121 2062.14 42.5699 2151.66 52.3398C2241.19 61.8877 2330.97 46.3446 2376.11 38.5731L2421 30.8016V366.087H2376.11C2330.97 366.087 2241.19 366.087 2151.66 366.087C2062.14 366.087 1972.86 366.087 1883.34 366.087C1793.81 366.087 1704.03 366.087 1614 366.087C1523.97 366.087 1434.19 366.087 1344.66 366.087C1255.14 366.087 1165.86 366.087 1076.34 366.087C986.81 366.087 897.031 366.087 807 366.087C716.969 366.087 627.19 366.087 537.664 366.087C448.137 366.087 358.863 366.087 269.336 366.087C179.81 366.087 90.0309 366.087 44.8894 366.087H0V50.7855Z" fill="#474448"/>
<path d="M0 179.571L44.8894 166.914C90.0309 154.48 179.81 129.167 269.336 126.946C358.863 124.726 448.137 145.598 537.664 150.261C627.19 155.146 716.969 144.044 807 148.485C897.031 152.925 986.81 172.909 1076.34 159.143C1165.86 145.598 1255.14 98.0809 1344.66 96.3045C1434.19 94.5282 1523.97 138.049 1614 150.705C1704.03 163.361 1793.81 144.71 1883.34 126.28C1972.86 107.851 2062.14 89.1991 2151.66 92.9739C2241.19 96.7486 2330.97 122.506 2376.11 135.606L2421 148.485V366.087H2376.11C2330.97 366.087 2241.19 366.087 2151.66 366.087C2062.14 366.087 1972.86 366.087 1883.34 366.087C1793.81 366.087 1704.03 366.087 1614 366.087C1523.97 366.087 1434.19 366.087 1344.66 366.087C1255.14 366.087 1165.86 366.087 1076.34 366.087C986.81 366.087 897.031 366.087 807 366.087C716.969 366.087 627.19 366.087 537.664 366.087C448.137 366.087 358.863 366.087 269.336 366.087C179.81 366.087 90.0309 366.087 44.8894 366.087H0V179.571Z" fill="#3E393F"/>
<path d="M0 139.603L44.8894 149.595C90.0309 159.587 179.81 179.57 269.336 192.449C358.863 205.55 448.137 211.323 537.664 215.542C627.19 219.538 716.969 221.759 807 222.869C897.031 223.979 986.81 223.979 1076.34 223.979C1165.86 223.979 1255.14 223.979 1344.66 223.313C1434.19 222.425 1523.97 221.093 1614 207.326C1704.03 193.559 1793.81 167.802 1883.34 160.253C1972.86 152.925 2062.14 164.028 2151.66 176.24C2241.19 188.452 2330.97 201.775 2376.11 208.436L2421 215.097V366.087H2376.11C2330.97 366.087 2241.19 366.087 2151.66 366.087C2062.14 366.087 1972.86 366.087 1883.34 366.087C1793.81 366.087 1704.03 366.087 1614 366.087C1523.97 366.087 1434.19 366.087 1344.66 366.087C1255.14 366.087 1165.86 366.087 1076.34 366.087C986.81 366.087 897.031 366.087 807 366.087C716.969 366.087 627.19 366.087 537.664 366.087C448.137 366.087 358.863 366.087 269.336 366.087C179.81 366.087 90.0309 366.087 44.8894 366.087H0V139.603Z" fill="#362E37"/>
<path d="M0 281.71H44.8894C90.0309 281.71 179.81 281.71 269.336 278.38C358.863 275.049 448.137 268.388 537.664 261.282C627.19 254.399 716.969 246.85 807 245.739C897.031 244.629 986.81 249.958 1076.34 255.731C1165.86 261.727 1255.14 268.388 1344.66 266.167C1434.19 263.947 1523.97 252.845 1614 244.629C1704.03 236.636 1793.81 231.307 1883.34 227.754C1972.86 223.979 2062.14 221.759 2151.66 222.869C2241.19 223.979 2330.97 228.42 2376.11 230.641L2421 232.861V366.087H2376.11C2330.97 366.087 2241.19 366.087 2151.66 366.087C2062.14 366.087 1972.86 366.087 1883.34 366.087C1793.81 366.087 1704.03 366.087 1614 366.087C1523.97 366.087 1434.19 366.087 1344.66 366.087C1255.14 366.087 1165.86 366.087 1076.34 366.087C986.81 366.087 897.031 366.087 807 366.087C716.969 366.087 627.19 366.087 537.664 366.087C448.137 366.087 358.863 366.087 269.336 366.087C179.81 366.087 90.0309 366.087 44.8894 366.087H0V281.71Z" fill="#2D232E"/>
</svg>
